<?xml version="1.0" standalone="no"?>
<!DOCTYPE svg PUBLIC "-//W3C//DTD SVG 20010904//EN"
 "http://www.w3.org/TR/2001/REC-SVG-20010904/DTD/svg10.dtd">
<svg version="1.0" xmlns="http://www.w3.org/2000/svg"
 width="30.000000pt" height="30.000000pt" viewBox="0 0 30.000000 30.000000"
 preserveAspectRatio="xMidYMid meet">

<g transform="translate(0.000000,30.000000) scale(0.100000,-0.100000)"
fill="#000000" stroke="none">
<path d="M127 294 c-4 -4 -7 -31 -7 -60 l0 -53 -57 -3 c-54 -3 -58 -5 -58 -28
0 -23 4 -25 57 -28 l57 -3 3 -57 c3 -53 5 -57 28 -57 23 0 25 4 28 57 l3 57
57 3 c53 3 57 5 57 28 0 23 -4 25 -57 28 l-57 3 -3 57 c-3 49 -6 57 -23 60
-12 2 -24 0 -28 -4z"/>
</g>
</svg>
